<?xml version="1.0" encoding="utf-8"?>
<!-- Generator: Adobe Illustrator 26.2.1, SVG Export Plug-In . SVG Version: 6.00 Build 0)  -->
<svg version="1.1" id="Layer_1" xmlns="http://www.w3.org/2000/svg" xmlns:xlink="http://www.w3.org/1999/xlink" x="0px" y="0px"
	 viewBox="0 0 1200 380" style="enable-background:new 0 0 1200 380;" xml:space="preserve">
<style type="text/css">
	.st0{fill:#FFFFFF;}
</style>
<g>
	<g>
		<rect x="5" y="58.6" class="st0" width="514.1" height="8"/>
		<rect x="680.9" y="58.6" class="st0" width="514.1" height="8"/>
	</g>
	<path class="st0" d="M615.4,47.1l-13.7-30.4c-0.7-1.5-2.8-1.5-3.5,0l-13.6,30.4c-0.5,1-1.7,1.4-2.7,0.9l-22.1-12.1
		c-1.4-0.8-3.1,0.4-2.8,2l7,41.4c0.2,0.9,1,1.6,1.9,1.6l17.8,0l16.3,0l16.3,0l0,0l17.8,0c0.9,0,1.7-0.7,1.9-1.6l7-41.4
		c0.3-1.6-1.4-2.8-2.8-2L618.1,48C617.1,48.6,615.9,48.2,615.4,47.1z"/>
	<g>
		<path class="st0" d="M459.7,301.4l-0.2,0c-3,1-5,1.1-8.3,1.1h-35.5c-2.5,0-5.6-0.6-7.3-1.4c-0.4-0.2-0.9,0-1.2,0.3l-0.2,0.1l0,0.2
			c-0.2,3.7-0.9,10.5-1.7,14.6l0,0.2l0.1,0.2c0.3,0.4,1,0.6,1.4,0.6c0.7,0.1,1-0.1,1.1-0.2l0.1-0.2c1-2.7,2.3-6.4,3.5-8.3
			c0.9-1.5,2-2.2,3.4-2.2c2-0.2,11.2-0.2,13.3-0.1c0,0,0.1,0.1,0.1,0.1c0,16.5-0.1,42.6-0.3,46.6c-0.2,4.5-0.6,5.9-2.9,6.3
			c-1.2,0.3-3.3,0.6-6.1,0.9l-0.3,0.1c-0.2,0.2-0.4,0.4-0.4,0.8c-0.1,0.4,0,1.1,0.3,1.5l0.2,0.2h0.3c1.1,0,2.6,0,4.3-0.1
			c2.5-0.1,5.7-0.2,9.4-0.2c2,0,4.3,0.1,6.6,0.2c2,0.1,3.9,0.1,5.4,0.1h0.1l0.1,0c0.3-0.1,0.5-0.4,0.6-0.8c0,0,0.3-1.1-0.2-1.6
			l-0.1-0.1l-0.8-0.1c-1.9-0.2-2.8-0.3-4.1-0.7c-1.6-0.5-2.7-0.8-3-6.1c-0.2-5.1-0.4-33.2-0.4-46.6c0-0.1,0.1-0.2,0.1-0.3
			c2.2-0.1,10.4-0.1,14,0.1c1.7,0.2,2.6,0.8,3.3,2.4c0.7,1.9,1.2,5.2,1.4,7.8c0.1,0.4,0.6,0.6,1.4,0.6c0.8,0,1.3-0.2,1.4-0.7
			c0.2-3.2,0.9-11.1,1.9-14.4l0-0.2C460.7,301.6,460,301.4,459.7,301.4z M547,302.4h-0.2c-0.7,0-1.6,0-2.7,0.1
			c-1.6,0.1-3.7,0.1-6.1,0.1c-3.5,0-6-0.1-7.9-0.1c-1,0-1.7,0-2.3,0h-0.2l-0.2,0.2c-0.4,0.4-0.5,1.8-0.1,2.2l0.1,0.1l0.2,0
			c0.8,0.1,1.4,0.2,2,0.3c0.7,0.1,1.3,0.2,2.1,0.3c2.1,0.5,3.7,0.8,3.8,6.6c0.4,9.9,0.2,22.4-0.2,29.6c-0.8,15.5-9.1,17.5-16.2,17.5
			c-6.7,0-12.1-2.5-14.9-6.8c-1.9-2.8-2.7-6-3.1-12.3c-0.2-4.8-0.3-22,0-29.6c0.2-3.9,0.8-4.4,2.1-4.8c0.8-0.3,1.4-0.4,2.5-0.6
			c0.4-0.1,0.9-0.2,1.5-0.3l0.2,0l0.1-0.1c0.4-0.4,0.4-1.8,0-2.2l-0.2-0.2h-0.2c-0.8,0-1.9,0-3.2,0.1c-1.9,0.1-4.3,0.2-7.3,0.2
			c-3.2,0-6.2-0.1-8.5-0.2c-1.2,0-2.1-0.1-2.6-0.1h-0.2l-0.2,0.2c-0.3,0.3-0.4,1.1-0.3,1.5c0,0.4,0.2,0.7,0.4,0.8l0.7,0.1
			c1.3,0.2,3.2,0.5,4.1,0.8c1.7,0.5,2,2,2,4.6c0.1,2.5,0.1,6.4,0.1,11c0,9.4,0.1,21.1,0.6,25.2c1.4,11.9,9.3,17.9,23.3,17.9
			c9.3,0,20.8-3.3,23.1-18.8c1-5.7,1.1-11.1,1.3-27.1l0.1-5.8c0.2-5.4,0.8-6.4,2.9-7c0.8-0.3,2-0.4,3.5-0.7l0.2,0l0.1-0.1
			c0.4-0.4,0.4-1.8,0-2.2L547,302.4z M626.1,301.4l-0.2,0c-3,1-5,1.1-8.3,1.1h-35.5c-2.5,0-5.6-0.6-7.3-1.4c-0.4-0.2-0.9,0-1.1,0.3
			l-0.2,0.2l0,0.2c-0.2,3.7-0.9,10.6-1.7,14.6l0,0.2l0.1,0.2c0.3,0.4,1,0.6,1.4,0.6c0.7,0.1,1-0.1,1.1-0.2l0.1-0.2
			c0.9-2.5,2.2-6.3,3.5-8.3c0.9-1.5,2-2.2,3.4-2.2c2-0.2,11.5-0.2,13.2-0.1c0.1,0,0.1,0.1,0.2,0.1c0,14.4-0.1,42.3-0.3,46.6
			c-0.2,4.5-0.6,5.9-2.9,6.3c-1.2,0.3-3.3,0.6-6.1,0.9l-0.3,0.1c-0.2,0.2-0.4,0.4-0.4,0.8c-0.1,0.4,0,1.1,0.3,1.5l0.2,0.2h0.3
			c1.1,0,2.6,0,4.3-0.1c2.5-0.1,5.7-0.2,9.4-0.2c2,0,4.3,0.1,6.6,0.2c2,0.1,3.9,0.1,5.3,0.1h0.1l0.1,0c0.3-0.1,0.5-0.4,0.6-0.8
			c0,0,0.3-1.1-0.2-1.6l-0.1-0.1l-0.8-0.1c-1.9-0.2-2.8-0.3-4.1-0.7c-1.6-0.5-2.7-0.8-3-6.1c-0.2-5.1-0.4-33.2-0.4-46.6
			c0-0.1,0.1-0.2,0.1-0.3c2.2-0.1,10.4-0.1,14,0.1c1.7,0.2,2.6,0.8,3.3,2.4c0.7,1.9,1.2,5.2,1.4,7.7l0,0.1c0.1,0.1,0.2,0.6,1.4,0.6
			c0,0,0,0,0,0c0.8,0,1.2-0.2,1.4-0.7c0.2-3.2,0.9-11.1,1.9-14.4l0-0.2C627.1,301.6,626.4,301.4,626.1,301.4z M681.8,300.9
			c-10.2,0-20.7,5.2-26.1,13c-3.5,5.3-5.4,11.6-5.4,18.3c0,8.9,3,17.1,8.3,23.1c5.2,5.7,13.3,9.2,21.7,9.2
			c10.4,0,19.9-4.8,25.4-12.9c4-5.8,5.8-12.1,5.8-19.9C711.5,310.4,696.6,300.9,681.8,300.9z M694.2,356.7L694.2,356.7
			c-2.5,2.2-6.3,3.5-10.3,3.5c-4.7,0-8.8-1.2-12.1-3.6c-8.7-6.1-11.8-17.8-11.8-26.8c0-10.7,3.6-19,9.9-22.9c2.8-1.6,5.8-2.3,9-2.3
			c4.8,0,9.1,1.4,12.6,4.1c6.8,5,10.9,14.6,10.9,25.8C702.2,341.6,700.9,351.1,694.2,356.7z M794.6,360.6l-0.1-0.3l-0.4,0
			c-4.3-0.4-5.6-0.6-9.9-5c-4.6-4.5-12.8-16.9-16.1-22.3c4.3-1.8,11.3-6.3,11.3-15.6c0-9.3-6.5-15.1-17-15.1c-2.1,0-4.2,0-6.5,0.1
			c-2.6,0.1-5.3,0.1-8.5,0.1c-1.4,0-3.4-0.1-5.3-0.2c-1.8-0.1-3.5-0.1-4.6-0.1l-0.2,0.1c-0.3,0.2-0.4,0.5-0.5,0.8
			c0,0.3-0.2,1.2,0.2,1.5l0.1,0.2l0.2,0c1.4,0.1,3.1,0.3,4.4,0.7c1.8,0.3,2.5,1.3,2.6,3.8c0.2,3.9,0.2,16.9,0.2,23.1
			c0,5.1-0.1,19.5-0.2,22.2c-0.2,3.7-0.8,4.4-2.6,4.9c-0.8,0.2-1.9,0.4-3.4,0.6l-1,0.1c-0.5,0.1-0.7,0.6-0.7,1.3
			c0,0.7,0.3,1.2,0.9,1.3c0.4,0,1.1,0,1.9-0.1c1.8-0.1,4.9-0.2,9.4-0.2c2.9,0,6.1,0.1,8.3,0.2c1.3,0,2.4,0.1,3,0.1h0.2l0.2-0.2
			c0.5-0.5,0.6-1.8,0.1-2.3l-0.1-0.1l-1.1-0.2c-1.5-0.2-2.8-0.4-4-0.7c-1.4-0.4-2.1-0.7-2.2-4.7c-0.2-3.9-0.2-13.6-0.1-18.9
			c0.5,0,1.1,0,1.8,0c1.4,0,3.2-0.1,4.1,0c0.7,0,1.3,0.5,1.9,1.4c1.3,1.9,3.1,4.7,4.9,7.6c3.1,4.9,6.6,10.5,8.9,13.1
			c1.4,1.7,3,3,4.7,3.7c2.6,1.1,7.8,1.6,11.7,1.6c1,0,1.9,0,2.7-0.1l0.2,0l0.1-0.1C794.6,362.4,794.8,361.1,794.6,360.6z
			 M764.3,331.3c-2.3,0.9-7.8,0.7-11.2,0.4c0-9.4,0-22.1,0.3-24.9c0-0.2,0.1-0.5,0.2-0.6c0.7-0.2,1.9-0.3,2.6-0.3
			c9.4,0,14.6,4.9,14.6,13.8C770.8,327.6,766.7,330.4,764.3,331.3z"/>
	</g>
	<path class="st0" d="M207.7,216.4c-0.3-0.1-1.6-0.9-2.4-0.6l-0.2,0.1l-0.1,0.2c-4.6,8.2-7.9,13.3-12.9,18.3
		c-5.6,5.3-13.2,7.8-23.4,7.8c-33.1,0-53.7-23.4-53.7-61.1c0-35.4,17.5-56.5,46.9-56.5c11,0,18.5,1.4,25,4.7l0,0
		c6.7,3.4,9.1,8.6,10.9,23.1c0,0.2,0.1,0.7,0.8,1c1,0.3,3.5,0,4.2-1l0.1-0.2l0-0.2c0.2-8.4,2.2-23.1,3.6-28.7l0.2-0.7l-0.8-0.1
		c-3.2-0.3-6.9-0.8-10.8-1.4c-7.8-1.1-16.7-2.4-26.4-2.4c-16.4,0-30,3-41.4,9.3c-20.1,10.8-31.6,30.8-31.6,54.9
		c0,42.3,25.2,66.6,69,66.6c13.9,0,25-3,29.2-4.3c4.9-2.5,12.8-17.4,15.4-27.1l0-0.2l0-0.2C209,217.2,208.3,216.7,207.7,216.4z
		 M354.5,242.7l-0.3,0c-4.5-0.5-6.4-0.8-8.3-1.5c-2.4-0.8-3.1-2.2-3.4-6.7c-0.3-4.8-0.5-21.6-0.5-35.1c0-19.4,0.3-30.5,0.5-36.5
		l0-0.2c0.1-6,1.3-6.6,4.2-7.6c1.1-0.4,2.6-0.6,4.2-0.9c0.7-0.1,1.5-0.2,2.3-0.3l0.2,0l0.1-0.1c0.7-0.7,0.5-2.6,0.1-3.3l-0.2-0.3
		H353c-0.9,0-2.4,0.1-4.4,0.1c-3.3,0.1-7.9,0.3-12.6,0.3c-4.9,0-9.1-0.2-12.6-0.3c-2.1-0.1-3.9-0.2-5.2-0.2h-0.2l-0.2,0.1
		c-0.4,0.3-0.6,0.8-0.7,1.4c0,0.7,0.1,1.5,0.6,2l0.2,0.2l0.2,0c2.9,0.2,5.1,0.5,7.4,1.2c1.8,0.6,2.7,2.1,2.8,4.7
		c0.3,5.5,0.3,25.9,0.3,33.8c0,0.1-0.1,0.2-0.2,0.3c-2,0.1-10.6,0.1-23.5,0.1c-22.9,0-26.4-0.1-26.8-0.3c-0.2-0.1-0.3-0.3-0.3-0.6
		c0-14,0-25,0.3-31.6c0.2-5.1,1.3-5.7,4-6.5c1.4-0.4,4.1-0.9,6-1.1l0.2,0l0.1-0.1c0.9-0.6,0.8-2.7,0.3-3.4l-0.2-0.3l-0.4,0
		c-1.1,0-2.2,0.1-3.3,0.1c-3.3,0.2-7,0.3-13.5,0.3c-3.2,0-7-0.1-10.6-0.3c-3.1-0.1-5.9-0.2-8-0.2h-0.3l-0.2,0.3
		c-0.4,0.6-0.7,2.5,0.1,3.3l0.2,0.2l2.1,0.3c2.7,0.3,4.3,0.5,6.2,1c2.1,0.5,3.2,1.7,3.5,6.2c0.2,2.6,0.3,20.6,0.3,35.7
		c0,13.3,0,28.4-0.2,33.3c-0.3,7.3-0.6,9.9-4.5,11c-1.9,0.6-4.2,1.1-7.3,1.4l-0.2,0l-0.2,0.2c-0.5,0.5-0.6,1.4-0.5,2.1
		c0.1,0.7,0.3,1.1,0.6,1.3l0.2,0.1l0.2,0c1.1,0,10.7-0.5,18.8-0.5c5.8,0,10.9,0.2,15,0.4l2.7,0.1l0.1,0c0.3-0.1,0.6-0.4,0.8-1
		c0.2-0.6,0.4-1.9,0-2.5l-0.2-0.3l-0.3,0c-4.3-0.4-5.8-0.9-7.9-1.5l-0.2-0.1c-2.8-0.8-3.1-2.7-3.4-7.2l-0.1-1.4
		c-0.2-3.7-0.3-23.2-0.3-31.5c0-0.1,0.1-0.3,0.2-0.4c1.8-0.3,15-0.3,26.6-0.3c7.5,0,21.6,0,23.9,0.2c0,0,0.1,0.2,0.1,0.4
		c0,10,0,28.7-0.2,33.3c-0.2,5.5-1,6.6-3.8,7.4c-2.1,0.5-3.9,0.7-5.8,0.9l-1.6,0.2l-0.2,0.2c-0.5,0.7-0.6,2.4,0,3.2l0.2,0.3l0.3,0
		c4.7-0.2,11.7-0.5,18.3-0.5c3.8,0,6.9,0.1,9.8,0.3c2.6,0.1,5.1,0.2,7.9,0.2h0.3l0.2-0.2c0.7-0.7,0.9-2.5,0.4-3.3L354.5,242.7z
		 M278,200.6L278,200.6C278,200.6,278,200.6,278,200.6C278,200.6,278,200.6,278,200.6z M484,242.7l-0.3,0
		c-10-1.2-10.5-1.6-14.6-11.2c-3-7.8-11.5-33.5-17.7-52.2c-3.2-9.9-6.1-18.4-7.2-21.6l-0.7-2.4c-0.5-1.8-1-3.4-1.2-4.4l-0.1-0.5
		h-0.5c-0.2,0-0.4,0-0.7,0c-0.7,0-1.8,0.1-3.5,0.1c-1.4,0-2.5-0.1-3.3-0.1c-0.4,0-0.8,0-1,0h-0.5l-0.1,0.5c-0.3,1.7-1,4.4-2,7.3
		c-0.6,1.7-1.6,4.5-2.8,7.9c-5.8,16.1-16.5,45.9-23.8,63.6c-4.6,10.7-6.2,11.5-16.3,12.9l-0.3,0.1c-0.8,0.5-0.6,2.4-0.6,2.4
		c0.1,0.7,0.3,1.1,0.7,1.2l0.2,0c1.2,0,2.5-0.1,4.2-0.2c2.7-0.1,6-0.3,10.3-0.3c4,0,8.2,0.2,11.6,0.3c2.4,0.1,4.6,0.2,6,0.2h0.3
		l0.2-0.2c0.5-0.5,0.6-1.8,0.6-2.3c0-0.5-0.1-0.8-0.3-1.1l-0.2-0.2l-0.2,0c-2.8-0.3-4.3-0.6-5.9-1.1l-0.7-0.2c-4.5-1-4.3-3.1-4-5.5
		c0.4-3.8,6-18.7,9-26.7l0.6-1.5c0.1-0.3,0.5-0.6,0.7-0.6c1.7-0.2,3.4-0.2,12.7-0.2c8.3,0,11.7,0,13.2,0.1c0.1,0,0.4,0.2,0.5,0.4
		c0.1,0.1,0.2,0.2,0.3,0.2c0.6,1.8,1.3,3.9,2.1,6.2c2.9,8.4,6.5,18.8,7.8,23.9c0.5,1.6,0.6,2.5-1.3,3.4c-1.6,0.6-3.7,0.9-6,1.3
		l-1.7,0.3l-0.2,0.2c-0.5,0.7-0.3,2.7,0,3.1l0.2,0.4l0.4,0c3.7-0.3,11.9-0.5,18.1-0.5c4.2,0,11.8,0.3,17.1,0.5l0.2,0l0.2-0.1
		c0.3-0.2,0.5-0.6,0.7-1.2c0.1-0.5,0.2-1.6-0.2-2.1L484,242.7z M434.3,200.5c-7.3,0-10.9,0-12.1-0.1c-0.1,0-0.1-0.1-0.2-0.1
		c0,0,0,0,0,0c0,0,0-0.1,0-0.2l1.8-5.2c2.9-8.6,7.7-22.7,9.9-28.9c2.5,7.7,7.6,24,10.8,34.2c0,0,0,0.1,0,0.1
		C443,200.5,437.6,200.5,434.3,200.5z M444.6,200.4C444.6,200.4,444.7,200.4,444.6,200.4C444.7,200.4,444.7,200.4,444.6,200.4
		C444.7,200.4,444.6,200.4,444.6,200.4z M637.7,242.7l-0.2,0c-3.4-0.3-5.6-0.6-7.5-1.1c-4.1-1-4.9-3.3-5.2-8.2
		c-0.6-11-1.9-62.7-1.5-72.1c0-2.6,0.3-4.9,4.2-5.9c2-0.6,3.9-1,8.7-1.5l0.2,0l0.2-0.2c0.5-0.5,0.6-1.5,0.5-2.1
		c-0.1-0.6-0.3-1.1-0.6-1.3l-0.2-0.1H636c-2.6,0-4.9,0.1-7.5,0.2c-3.8,0.1-8.6,0.3-16.6,0.3h-0.6l-0.1,0.6c-0.3,2.7-1.4,5.3-2.7,8.4
		l-0.2,0.4c-6.5,14.5-26.7,56.5-30.1,63.2c-3-5.8-19.2-40.4-29.2-63.5c-1.8-3.5-2.6-5.6-2.9-8.4l-0.1-0.6h-0.6
		c-10.2,0-16.3-0.2-20.4-0.3c-2.2-0.1-3.9-0.1-5.4-0.1l-0.2,0c-0.6,0.2-0.8,0.9-0.8,1.4c0,0.4-0.2,1.6,0.5,2l0.3,0.1
		c4.4,0.6,7,1.2,9.6,2.1c3.3,1.2,3.7,4.1,3.7,6.5c-0.6,12.8-3.8,57.6-5.2,67.8c-1.3,9.2-2.7,10.8-6.9,11.6c-1.2,0.3-2.6,0.5-3.9,0.6
		c-0.7,0.1-1.4,0.2-2,0.3l-0.2,0l-0.2,0.2c-0.5,0.5-0.5,1.7-0.5,2.3c0.1,0.6,0.2,1,0.6,1.2l0.2,0.1h0.2c1.1,0,2.7-0.1,4.7-0.1
		c3.3-0.1,7.7-0.3,12.4-0.3c4.1,0,7.6,0.2,10.4,0.3c2,0.1,3.7,0.2,5.2,0.2l0.3-0.1c0.6-0.3,0.7-1.4,0.7-1.9c0-0.8-0.1-1.4-0.5-1.7
		l-2.7-0.4c-2.6-0.4-4-0.6-5.7-1c-3.6-0.9-4.6-3.3-4.6-10.5c0-9.2,2-49.1,3.1-63.5c1.6,3.8,4.5,10.7,8.2,19
		c9.3,21.5,22.1,50.9,24.8,60.1l0.1,0.3l0.3,0.1c0.3,0.1,0.9,0.2,1.6,0.2c0.7,0,1.4-0.1,1.7-0.1l0.3-0.1l0.1-0.3
		c4-11.7,22.3-50.7,31.2-69.4c1.6-3.5,3-6.3,3.9-8.2c0.3,14.5,0.9,56.2,0.7,65.8c0,4.4-0.9,6-3.7,6.8c-1.7,0.6-3.3,0.9-7,1.4
		l-0.3,0.1c-0.5,0.4-0.6,1.3-0.6,2c0.1,1.3,0.5,1.5,0.6,1.6l0.2,0.1l0.7,0c3.7-0.2,9.9-0.4,17.6-0.4c5.3,0,10.1,0.2,13.7,0.3
		c2.2,0.1,4,0.1,5.1,0.1h0.4l0.2-0.4c0.4-0.8,0.5-2.6-0.1-3.2L637.7,242.7z M738.9,155.8c-5.4-4.1-13.9-5.5-20-5.5
		c-4.3,0-8,0.1-11.5,0.2c-3.5,0.1-6.9,0.2-10.8,0.2c-4.3,0-8.7-0.2-12.2-0.3c-2.2-0.1-4.1-0.2-5.2-0.2l-0.3,0.1
		c-0.3,0.1-0.4,0.4-0.5,0.7c-0.2,0.6-0.4,2-0.1,2.5l0.2,0.3l0.4,0c3.2,0.3,5.5,0.8,7.3,1.2c3.3,0.8,4,2.8,4.1,8.1
		c0.3,4.8,0.3,22.2,0.3,33.7c0,17.9-0.2,29.9-0.6,36.5c-0.3,7.3-1.5,7.6-4.6,8.4c-1.8,0.5-4.4,0.8-7.2,1.1l-0.3,0.1
		c-0.4,0.3-0.6,0.8-0.6,1.5c0,0.3,0,1.6,0.7,2l0.2,0.1h0.2c1.6,0,3.9-0.1,6.7-0.2c3.8-0.1,8.2-0.3,12.1-0.3c3.4,0,7.8,0.1,11.7,0.3
		c3.1,0.1,5.8,0.2,7.6,0.2h0.2l0.1-0.1c0.5-0.3,0.6-1.2,0.6-1.8c0-0.7-0.1-1.5-0.8-1.8l-1.1-0.2c-2.2-0.3-4.5-0.6-6.4-1
		c-3.9-0.8-5.2-1.4-5.4-9c-0.3-8.5-0.3-20.8-0.2-30.6c0-3.3,0-6.3,0-8.7c0-20.1,0.3-32.3,0.5-36.3c0.1-1,0.5-1.4,0.7-1.5
		c0.9-0.4,3.7-0.6,5.5-0.6c20.1,0,24.3,13.6,24.3,25c0.2,10.3-2.4,16.3-8.6,20.1c-3.2,1.7-6,2.4-10.5,2.4c-2.5,0-3.9-0.2-5.2-0.3
		c-0.4,0-0.7-0.1-1.2-0.1c-0.7,0-1.1,1.1-1.1,1.4l0.1,0.3c0.7,1.3,1.2,2.1,1.7,2.5l0.2,0.1c1.5,0.5,3.8,0.8,7,0.8
		c5.8,0,10.7-1.2,16-3.9c4.8-2.4,15.8-9.9,15.6-26.8C748.4,165.5,743.2,159.2,738.9,155.8z M825.8,242.7l-0.2,0
		c-2.7-0.3-5.5-0.6-7.5-1.2c-3.7-0.9-4-3.4-4.3-7.9c-0.1-5-0.3-19.5-0.3-36.5c0-12.4,0.2-28.4,0.5-34.5c0.3-5.3,0.8-6.8,3.7-7.7
		c0.7-0.2,1.8-0.3,2.9-0.5c1.1-0.2,2.3-0.4,3.5-0.6l0.3-0.1l0.2-0.2c0.5-0.7,0.3-2.4-0.2-3l-0.2-0.3h-0.3c-1.4,0-2.9,0.1-4.8,0.2
		c-2.9,0.1-6.5,0.3-11.4,0.3c-4.6,0-9.1-0.2-12.7-0.3c-2.4-0.1-4.5-0.2-6-0.2h-0.3l-0.2,0.2c-0.4,0.4-0.5,1.5-0.5,2.1
		c0.1,0.6,0.2,1,0.6,1.2l0.3,0.1c3.6,0.4,6.2,0.9,7.9,1.4c2.5,0.7,2.9,2.6,3.3,6l0.1,1c0.3,7.1,0.3,18.8,0.3,31.3
		c0,14.7-0.2,37.4-0.5,41.7c-0.3,4.3-1,5.9-4.3,6.5c-1.8,0.5-4.5,0.9-6.7,1.1l-0.3,0l-0.2,0.3c-0.4,0.6-0.7,2.5,0.1,3.3l0.2,0.2h0.3
		c3.6,0,6.2-0.1,8.9-0.2c2.9-0.1,6-0.3,10.6-0.3c3.9,0,7.3,0.1,10.2,0.3c2.4,0.1,4.5,0.2,6.4,0.2h0.3l0.2-0.2
		c0.4-0.4,0.6-1.5,0.6-2.1c0-0.6-0.1-1-0.4-1.3L825.8,242.7z M918.7,147.8c-16.2,0-32.9,8.3-41.4,20.6c-5.6,8.4-8.6,18.5-8.6,29
		c0,14.2,4.7,27.2,13.3,36.7c8.3,9.1,21.1,14.6,34.4,14.6c16.6,0,31.7-7.7,40.3-20.5c6.3-9.2,9.2-19.2,9.2-31.7
		c0-13.2-4.2-25.3-11.9-34C945.5,152.9,933.3,147.8,918.7,147.8z M938.8,237L938.8,237c-4.1,3.6-10.2,5.7-16.7,5.7
		c-7.6,0-14.1-1.9-19.5-5.7c-14-9.8-19-28.6-19-43c0-17.1,5.8-30.6,15.9-36.8c4.5-2.5,9.4-3.8,14.5-3.8c7.8,0,14.6,2.2,20.3,6.7
		c10.9,8,17.5,23.5,17.5,41.4C951.7,217.5,947.2,229.7,938.8,237z M1103.9,150.3l-0.2-0.2h-0.3c-0.7,0-2.4,0.1-4.3,0.2
		c-3.2,0.1-7.2,0.3-10,0.3c-4.1,0-8-0.2-11.5-0.3c-2.5-0.1-4.7-0.2-6.4-0.2h-0.3l-0.2,0.2c-0.5,0.5-0.8,2.6-0.2,3.2l0.2,0.2l1.4,0.2
		c3.2,0.4,5.7,0.7,8,1.4c4,1.3,4.8,3.6,5.1,7.9c0.7,8.1,0.7,32.9,0.6,52.8c0,4.3,0,8.3,0,11.9c-8.3-9.9-40.8-49.8-56.2-69.1
		c-4.1-4.9-5.4-7.1-5.8-8l-0.2-0.4l-0.5,0.1c-1.4,0.2-3.5,0.2-6.9,0.2c-3.1,0-6.8-0.2-10.1-0.3c-2.4-0.1-4.4-0.2-5.7-0.2h-0.3
		l-0.2,0.2c-0.5,0.5-0.7,2.5-0.4,3.1l0.2,0.3l1.1,0.2c5,0.7,8,1.1,10.9,3.9c2.3,2,3.3,5.2,3.3,6.9c-0.3,30.2-0.9,59.8-1.4,67.4
		c-0.5,7.6-2.7,8.8-5.6,9.6c-1.9,0.6-3.5,0.7-6.4,1l-0.5,0.1l-0.2,0.2c-0.6,0.6-0.6,2.8,0,3.4l0.2,0.2h0.3c1.2,0,2.7-0.1,4.5-0.2
		c2.9-0.1,6.5-0.3,11.2-0.3c4.6,0,8.9,0.2,12.3,0.3c2.1,0.1,3.8,0.2,4.9,0.2l0.2,0c0.4-0.2,0.7-0.6,0.8-1.5c0.1-0.4,0.2-1.7-0.5-2.1
		l-0.3-0.1c-2.8-0.3-5.8-0.6-8.1-1.2c-2.8-0.7-5.2-2-5.5-9.6c-0.3-8.3-0.5-47.2-0.2-63.1c1.8,2.2,5.2,6.5,9.5,12
		c16,20,45.8,57.2,51.5,65.7l0.2,0.3l0.4,0c2-0.2,7.2-0.2,8.8,0l0.7,0.1l0-0.7c-0.2-5-0.3-13.6-0.3-20.5c0.1-6.2,0.2-13.4,0.2-20.7
		c0.1-16.6,0.2-33.8,0.9-42.3c0.2-4.5,1.5-6.8,4.6-7.7c1.9-0.5,3.2-0.8,6-1.2l0.2,0l0.2-0.1C1104.5,153,1104.5,150.9,1103.9,150.3z"
		/>
</g>
</svg>
